<svg id="Layer_1" data-name="Layer 1" xmlns="http://www.w3.org/2000/svg" viewBox="0 0 1850 500"><defs><style>.cls-1{fill:#3cf;}.cls-2{fill:#919d9d;}</style></defs><title>CanWork Admin</title><path class="cls-1" d="M1106.93,184q-13.59-17.81-37.22-27.84t-60.53-10a131.09,131.09,0,0,0-57,13.27,98.49,98.49,0,0,0-23.51,15.69,106,106,0,0,0-23.19,30.94,243.11,243.11,0,0,1-87.95,95.63V441.42A48.47,48.47,0,0,0,866,489.88h43.45V314.46q0-51.13,16.83-73.48t54.38-22.33q33,0,46,20.39t12.95,61.82V442.61a47.27,47.27,0,0,0,47.28,47.27h44.64V284q0-31.06-5.51-56.64T1106.93,184Z"/><path class="cls-1" d="M817.57,155.21v114.7a241.66,241.66,0,0,0,66.36-114.7Z"/><path class="cls-1" d="M298,386.71c-.07.08-.14.17-.22.25-1.51,1.64-3.09,3.18-4.7,4.68q-5.11,5.3-9.92,10.88-5.29,7.19-11.11,14A242,242,0,0,1,156.26,491.3q31.11,8.74,67.18,8.92l1.51,0c2.5,0,5-.08,7.43-.14q38.4-1,70.9-12.81a181.66,181.66,0,0,0,62.14-37.54q26.54-24.6,42.73-59.56,14.4-31.11,19-68.92a240.7,240.7,0,0,0-106.65,46A244.1,244.1,0,0,0,298,386.71Z"/><path class="cls-1" d="M225,415.44q-34.32,0-58.26-13.27a110.94,110.94,0,0,1-38.84-35.28,153.06,153.06,0,0,1-21.69-49.52,235.32,235.32,0,0,1-6.79-56.64,253,253,0,0,1,6.79-58.91A166.93,166.93,0,0,1,116.3,172q1.23-2.72,2.55-5.37l.16-.3c.83-1.65,1.67-3.28,2.56-4.89.27-.5.56-1,.83-1.47.71-1.24,1.4-2.48,2.14-3.7q1.6-2.65,3.31-5.23a110,110,0,0,1,38.84-35.6q23.94-13.26,58.26-13.27c1.07,0,2.12,0,3.18.07h0a105.82,105.82,0,0,1,63.5,23.23A102.39,102.39,0,0,1,314.28,151h0l.17.29c12,19.45,32.77,31.75,55.61,31.75h54.26q-4.54-40.14-22-71.21A179.74,179.74,0,0,0,382.27,83,169.33,169.33,0,0,0,358,59.73a195.77,195.77,0,0,0-60.85-32,232.81,232.81,0,0,0-72.18-11q-53.08,0-95.48,18.78A213.67,213.67,0,0,0,90.63,57.69h-.1c-.67.48-1.3,1-2,1.48S87,60.35,86.22,60.94c-1.64,1.26-3.25,2.54-4.85,3.84-.76.61-1.51,1.23-2.26,1.85-1.62,1.37-3.21,2.76-4.79,4.18-.66.59-1.33,1.17-2,1.77q-3.27,3-6.41,6.15c-.15.16-.32.3-.47.46q-3.87,3.91-7.52,8c-2,2.27-3.91,4.59-5.82,6.94-.65.8-1.31,1.6-1.95,2.41h0a233.79,233.79,0,0,0-36.9,68Q-2.27,208.94-2.26,260.73q0,50.49,15.53,94.18T57.94,431a197.46,197.46,0,0,0,33.31,29.47,240.77,240.77,0,0,0,137.69-45.09C227.62,415.4,226.3,415.44,225,415.44Z"/><path class="cls-1" d="M461.55,359.3l0-.08Z"/><path class="cls-1" d="M460,363.58l.15-.48Z"/><path class="cls-1" d="M457.69,372.17c0-.16.07-.33.11-.49C457.76,371.84,457.72,372,457.69,372.17Z"/><path class="cls-1" d="M458.74,367.84l.18-.63Z"/><path class="cls-1" d="M458.92,367.21c.34-1.23.71-2.44,1.1-3.63C459.63,364.77,459.26,366,458.92,367.21Z"/><path class="cls-1" d="M457.8,371.68c.29-1.3.6-2.58.94-3.84C458.41,369.1,458.09,370.38,457.8,371.68Z"/><path class="cls-1" d="M456.15,381l0,0c.39-3,.89-6,1.52-8.85C457.06,375,456.55,378,456.15,381Z"/><path class="cls-1" d="M460.17,363.1c.44-1.29.89-2.56,1.38-3.8C461.06,360.54,460.6,361.81,460.17,363.1Z"/><path class="cls-1" d="M563.48,359.41A60.56,60.56,0,0,1,581,350.68a167.92,167.92,0,0,1,20.4-5.19q11-1.94,22-3.22a402.81,402.81,0,0,0,43-9.27l.42-.12c27.72-7.54,62.26-20.12,83.35-39.38a47.86,47.86,0,0,0,19.23-38.29V241.32q0-19-5.3-33.36a63.25,63.25,0,0,0-8.29-15.57,93.5,93.5,0,0,0-35-28.8,156.79,156.79,0,0,0-47.24-13.92q-13-1.75-25.72-2.66c-2.13-.14-4.26-.28-6.39-.39q-9.56-.51-19-.51c-4.54,0-9.12.11-13.66.34a284.33,284.33,0,0,0-41.46,5.16,157.64,157.64,0,0,0-49.51,18.46,110.34,110.34,0,0,0-36.24,34.3q-14.27,21.38-16.19,53.75h0v0h57.82c17.32,0,32.87-9.94,40.89-25.28a39.54,39.54,0,0,1,11.33-13.57q13.6-10.19,36.11-11.45c2.07-.14,4.18-.19,6.37-.19,4.09,0,8.07.14,11.89.39s7.68.67,11.33,1.2A51.76,51.76,0,0,1,660,215.73a35.64,35.64,0,0,1,12.94,13.61,31.15,31.15,0,0,1,2.11,4.74q2.71,7.68,2.73,18.85.63,14.26-8.42,21.68c-6,5-14.25,8.75-24.6,11.33a249.54,249.54,0,0,1-35.59,5.84q-20.07,1.94-40.79,5.16a386.83,386.83,0,0,0-41.1,8.75,123,123,0,0,0-24.65,9.52,106.25,106.25,0,0,0-11.61,7,84.11,84.11,0,0,0-25.89,29.45,69.21,69.21,0,0,0-3.5,7.58l0,.08c-.49,1.24-.94,2.51-1.38,3.8l-.15.48c-.39,1.19-.76,2.4-1.1,3.63l-.18.63c-.34,1.26-.65,2.54-.94,3.84,0,.16-.08.33-.11.49-.63,2.84-1.13,5.8-1.52,8.85-.24,1.81-.44,3.64-.59,5.52-.34,3.87-.51,7.88-.51,12.06q0,25.92,8.72,44.68a84.58,84.58,0,0,0,24.3,31.08,102.42,102.42,0,0,0,36.24,18.12,162.33,162.33,0,0,0,39.83,5.75c1.52,0,3,.06,4.57.06,3.9,0,7.77-.11,11.62-.31l3.87-.25c4-.29,8-.71,12-1.23a209.48,209.48,0,0,0,33.61-7.27,119.55,119.55,0,0,0,51.58-31.5l.15-.15.08-.08,0,.39a48.36,48.36,0,0,0,45.13,32h42.61V325.14a240.62,240.62,0,0,0-73.68,33l-1.4.94a48.36,48.36,0,0,0-20.26,33.16c.13-1,.26-1.88.42-2.8a73.17,73.17,0,0,1-7.1,17.28q-7.15,12.63-22,21.69c-6.26,3.83-14.18,6.41-23.72,7.81-2.81.41-5.75.73-8.85.94s-6.37.31-9.76.31h-.2c-1.57,0-3.14-.06-4.71-.11-1,0-2-.09-3-.17a.43.43,0,0,1-.25,0c-.72,0-1.44-.1-2.14-.15s-1.36-.1-2-.18l-3.54-.46c-.87-.11-1.74-.22-2.61-.39s-1.74-.28-2.61-.45a51.85,51.85,0,0,1-18.12-6.78,34.94,34.94,0,0,1-12.31-13.3c-3-5.58-4.52-12.51-4.52-20.7,0-8.64,1.49-15.74,4.52-21.38v0A41.86,41.86,0,0,1,563.48,359.41Z"/><path class="cls-1" d="M1720.45,124.51c-.06.33-.1.67-.17,1C1720.34,125.17,1720.39,124.84,1720.45,124.51Z"/><path class="cls-1" d="M1721.11,116.59a48.46,48.46,0,0,1-.66,7.92A43.87,43.87,0,0,0,1721.11,116.59Z"/><path class="cls-1" d="M1720.28,125.5c0,.12,0,.23-.07.35C1720.23,125.73,1720.26,125.62,1720.28,125.5Z"/><path class="cls-2" d="M1371.79,20.48,1330.6,143.72h-18.49L1278.48,45.3l-33.63,98.42H1226l-41.2-123.24H1203l33.28,100.18,34.68-100.18h16.2l34,100.71,34-100.71Z"/><path class="cls-2" d="M1398.73,138.62a44.67,44.67,0,0,1-17.34-17,48.21,48.21,0,0,1-6.25-24.56,48.16,48.16,0,0,1,6.25-24.56,44,44,0,0,1,17.34-16.91,51.17,51.17,0,0,1,25-6.07,50.65,50.65,0,0,1,24.91,6.07,44.25,44.25,0,0,1,17.26,16.91,48.26,48.26,0,0,1,6.25,24.56,48.31,48.31,0,0,1-6.25,24.56,44.94,44.94,0,0,1-17.26,17,50.06,50.06,0,0,1-24.91,6.16A50.57,50.57,0,0,1,1398.73,138.62Zm41.11-12.77A29.23,29.23,0,0,0,1451,114.23a35.49,35.49,0,0,0,4-17.16,35.5,35.5,0,0,0-4-17.17,28.62,28.62,0,0,0-11.18-11.53,34.07,34.07,0,0,0-32.22,0,29.22,29.22,0,0,0-11.27,11.53,34.87,34.87,0,0,0-4.13,17.17,34.86,34.86,0,0,0,4.13,17.16,29.86,29.86,0,0,0,11.27,11.62,33.41,33.41,0,0,0,32.22,0Z"/><path class="cls-2" d="M1524.79,53.75q8.63-4.22,21-4.22V65.9a35,35,0,0,0-3.88-.17q-13.72,0-21.56,8.18t-7.84,23.33v46.48h-16.9V50.41h16.2V66.08A28.8,28.8,0,0,1,1524.79,53.75Z"/><path class="cls-2" d="M1602.78,100.23l-19.37,18v25.53h-16.9V13.08h16.9V96.89l50.88-46.48h20.43L1615.46,89l43.13,54.75h-20.77Z"/><path class="cls-2" d="M1276.19,285.22H1210.7L1197.14,316H1179l55.81-123.24h17.43l56,123.24h-18.49ZM1270,271.14l-26.58-60.39-26.59,60.39Z"/><path class="cls-2" d="M1411.23,185.4V316H1395V301.25A36.59,36.59,0,0,1,1380.77,313a44.18,44.18,0,0,1-19,4,49,49,0,0,1-24.3-6,42.86,42.86,0,0,1-16.81-16.81,50,50,0,0,1-6.07-24.91q0-14.08,6.07-24.83a43.09,43.09,0,0,1,16.81-16.72,49.07,49.07,0,0,1,24.3-6,44.72,44.72,0,0,1,18.48,3.79,35.86,35.86,0,0,1,14.09,11.18V185.4Zm-32,112.76a29.05,29.05,0,0,0,11.27-11.62,38.4,38.4,0,0,0,0-34.33,28.57,28.57,0,0,0-11.27-11.53,33.89,33.89,0,0,0-32.13,0,29.22,29.22,0,0,0-11.27,11.53,37.65,37.65,0,0,0,0,34.33,29.72,29.72,0,0,0,11.27,11.62,33.24,33.24,0,0,0,32.13,0Z"/><path class="cls-2" d="M1587.9,232.05q10.3,10.22,10.3,30.29V316h-16.9V264.27q0-13.54-6.25-20.42T1557.18,237q-12.86,0-20.42,8t-7.57,23V316h-16.9V264.27q0-13.54-6.25-20.42T1488.17,237q-12.86,0-20.42,8t-7.58,23V316h-16.9V222.72h16.2v13.91a32.68,32.68,0,0,1,13.38-11,44.89,44.89,0,0,1,18.84-3.79,41.35,41.35,0,0,1,19.36,4.4,30.56,30.56,0,0,1,13,12.86,35.79,35.79,0,0,1,14.7-12.68,47.94,47.94,0,0,1,21.22-4.58Q1577.61,221.84,1587.9,232.05Z"/><path class="cls-2" d="M1629.63,201.6a10.42,10.42,0,0,1-3.26-7.75,10.72,10.72,0,0,1,3.26-7.84,11.1,11.1,0,0,1,8.19-3.25,11.45,11.45,0,0,1,8.18,3.08,10.12,10.12,0,0,1,3.26,7.66,10.89,10.89,0,0,1-3.26,8,11.09,11.09,0,0,1-8.18,3.25A11.27,11.27,0,0,1,1629.63,201.6Zm-.26,21.12h16.9V316h-16.9Z"/><path class="cls-2" d="M1756.57,232.14q10.47,10.31,10.47,30.2V316h-16.9V264.27q0-13.54-6.51-20.42T1725,237q-13.73,0-21.65,8t-7.92,23V316h-16.91V222.72h16.2v14.09a32.82,32.82,0,0,1,13.82-11.09,48.17,48.17,0,0,1,19.81-3.88Q1746.09,221.84,1756.57,232.14Z"/></svg>