<?xml version="1.0" encoding="UTF-8" standalone="no"?>
<svg width="1411px" height="259px" viewBox="0 0 1411 259" version="1.1" xmlns="http://www.w3.org/2000/svg" xmlns:xlink="http://www.w3.org/1999/xlink">
    <!-- Generator: Sketch 49.3 (51167) - http://www.bohemiancoding.com/sketch -->
    <title>CanYaDAO</title>
    <desc>Created with Sketch.</desc>
    <defs>
        <polygon id="path-1" points="0 0.7 226.1067 0.7 226.1067 235.9078 0 235.9078"></polygon>
        <polygon id="path-3" points="0.5513 0.8927 156.216 0.8927 156.216 150.6987 0.5513 150.6987"></polygon>
    </defs>
    <g id="CanYaDAO" stroke="none" stroke-width="1" fill="none" fill-rule="evenodd">
        <g id="Page-1" transform="translate(1.000000, 1.000000)">
            <path d="M876.2388,247.0735 C876.2078,247.0515 876.1748,247.0325 876.1438,247.0105 C876.1748,247.0325 876.2078,247.0515 876.2388,247.0735" id="Fill-1" fill="#33CCFF"></path>
            <path d="M875.1777,246.2613 C874.9877,246.1113 874.7897,245.9703 874.6047,245.8143 C874.7897,245.9703 874.9877,246.1113 875.1777,246.2613" id="Fill-3" fill="#33CCFF"></path>
            <path d="M876.144,247.0105 C875.812,246.7725 875.497,246.5145 875.178,246.2615 C875.497,246.5145 875.812,246.7725 876.144,247.0105" id="Fill-5" fill="#33CCFF"></path>
            <path d="M874.6045,245.8145 C874.4795,245.7105 874.3655,245.5945 874.2425,245.4885 C874.3655,245.5955 874.4795,245.7105 874.6045,245.8145" id="Fill-7" fill="#33CCFF"></path>
            <path d="M913.0874,131.3977 C913.0564,131.5727 913.0344,131.7497 913.0004,131.9237 C913.0324,131.7487 913.0584,131.5727 913.0874,131.3977" id="Fill-9" fill="#33CCFF"></path>
            <path d="M913.4409,127.1978 C913.4409,128.6178 913.3159,130.0208 913.0869,131.3978 C913.3249,130.0358 913.4549,128.6388 913.4409,127.1978" id="Fill-11" fill="#33CCFF"></path>
            <path d="M913,131.9236 C912.989,131.9846 912.973,132.0446 912.961,132.1046 C912.974,132.0446 912.988,131.9846 913,131.9236" id="Fill-13" fill="#33CCFF"></path>
            <path d="M587.9058,89.6929 C583.1018,83.4029 576.5238,78.4889 568.1768,74.9389 C559.8238,71.3959 549.1338,69.6199 536.0968,69.6199 C525.8038,69.6199 515.7358,71.9689 505.9038,76.6549 C501.3558,78.8229 497.2048,81.5969 493.4458,84.9699 C488.3188,89.5699 484.2838,95.2379 481.1498,101.3709 C470.4998,122.2109 454.3178,139.7499 434.5378,152.0559 L434.5378,226.1209 C434.5378,240.3089 446.0388,251.8099 460.2268,251.8099 L483.2588,251.8099 L483.2588,158.8279 C483.2588,140.7609 486.2268,127.7769 492.1788,119.8869 C498.1248,111.9949 507.7318,108.0479 521.0018,108.0479 C532.6658,108.0479 540.7828,111.6519 545.3608,118.8569 C549.9338,126.0619 552.2228,136.9879 552.2228,151.6239 L552.2228,226.7519 C552.2228,240.5909 563.4428,251.8099 577.2818,251.8099 L600.9438,251.8099 L600.9438,142.7029 C600.9438,131.7229 599.9678,121.7199 598.0268,112.6819 C596.0808,103.6469 592.7088,95.9859 587.9058,89.6929" id="Fill-15" fill="#33CCFF"></path>
            <path d="M434.5376,74.4246 L434.5376,135.2156 C451.4106,118.8726 463.8066,97.9396 469.7096,74.4246 L434.5376,74.4246 Z" id="Fill-17" fill="#33CCFF"></path>
            <path d="M666.2773,89.0042 L625.4403,19.6302 C620.7723,11.7002 612.2563,6.8322 603.0553,6.8322 L557.8633,6.8322 L635.4483,135.6512 C642.2213,117.8672 652.8333,101.9802 666.2773,89.0042" id="Fill-19" fill="#33CCFF"></path>
            <path d="M764.5776,53.3788 L792.5486,6.8318 L746.9356,6.8318 C737.7776,6.8318 729.2996,11.6648 724.6326,19.5448 L696.2836,67.4168 L674.8706,103.5728 L674.8626,103.5878 L674.8616,103.5858 C659.5336,123.6838 650.0086,148.4428 648.7876,175.3688 L648.7876,187.1738 L648.7876,226.1648 C648.7876,240.3288 660.2696,251.8098 674.4326,251.8098 L702.6546,251.8098 L702.6546,163.4378 C702.6546,158.8498 703.9036,154.3478 706.2666,150.4158 L764.4156,53.6468 L764.5776,53.3788 Z" id="Fill-21" fill="#33CCFF"></path>
            <path d="M800.4604,221.3802 C800.4604,207.2162 788.9784,195.7342 774.8144,195.7342 C760.6504,195.7342 749.1684,207.2162 749.1684,221.3802 C749.1684,235.5442 760.6504,247.0262 774.8144,247.0262 C788.9784,247.0262 800.4604,235.5442 800.4604,221.3802" id="Fill-23" fill="#33CCFF"></path>
            <path d="M861.123,204.2264 C861.756,202.8064 862.292,201.3794 862.731,199.9474 C862.29,201.3794 861.759,202.8064 861.123,204.2264" id="Fill-25" fill="#33CCFF"></path>
            <path d="M866.9541,234.8555 C866.9491,234.7865 866.9411,234.7175 866.9351,234.6485 C866.9311,234.6525 866.9281,234.6565 866.9231,234.6605 C866.9291,234.7295 866.9361,234.7975 866.9421,234.8665 C868.4431,239.0105 870.9861,242.6495 874.2431,245.4885 C870.9891,242.6465 868.4501,239.0035 866.9541,234.8555" id="Fill-27" fill="#33CCFF"></path>
            <path d="M815.4775,223.2298 C815.9385,223.3188 816.3995,223.3778 816.8605,223.4388 C817.4855,223.5178 818.1115,223.5998 818.7355,223.6788 C819.0955,223.7238 819.4565,223.7498 819.8195,223.7768 C820.1885,223.8048 820.5685,223.8408 820.9485,223.8538 C820.9935,223.8698 821.0375,223.8838 821.0825,223.8698 C821.6185,223.9138 822.1385,223.9428 822.6735,223.9588 C823.5065,223.9888 824.3395,224.0188 825.1715,224.0188 L825.2755,224.0188 C827.0735,224.0188 828.7985,223.9588 830.4505,223.8538 C832.0925,223.7458 833.6495,223.5748 835.1415,223.3568 C840.1965,222.6158 844.3935,221.2478 847.7105,219.2158 C852.9745,216.0198 856.8535,212.1838 859.3825,207.7228 C859.9955,206.6348 860.5285,205.5408 861.0245,204.4448 C860.5285,205.5358 859.9775,206.6228 859.3675,207.7068 C856.8395,212.1668 852.9595,216.0028 847.6965,219.1988 C844.3785,221.2318 840.1815,222.5998 835.1265,223.3398 C833.6345,223.5588 832.0775,223.7288 830.4355,223.8378 C828.7845,223.9428 827.0595,224.0028 825.2605,224.0028 L825.1565,224.0028 C824.3245,224.0028 823.4925,223.9718 822.6585,223.9428 C822.1235,223.9268 821.6025,223.8978 821.0675,223.8538 C821.0225,223.8668 820.9785,223.8538 820.9345,223.8378 C820.5545,223.8248 820.1745,223.7878 819.8045,223.7608 C819.4425,223.7328 819.0815,223.7078 818.7215,223.6618 C818.0975,223.5838 817.4715,223.5018 816.8465,223.4218 C816.3845,223.3608 815.9235,223.3028 815.4625,223.2138 C815.0015,223.1398 814.5415,223.0638 814.0805,222.9748 C813.8235,222.9278 813.5875,222.8578 813.3355,222.8048 C813.3355,222.8088 813.3345,222.8128 813.3345,222.8178 C813.5915,222.8718 813.8325,222.9428 814.0955,222.9918 C814.5565,223.0808 815.0165,223.1568 815.4775,223.2298" id="Fill-29" fill="#33CCFF"></path>
            <path d="M913.4409,189.4039 L913.4409,212.3299 L913.4409,251.7889 L891.0829,251.7889 L890.9849,251.7889 C885.4859,251.7789 880.4029,250.0319 876.2389,247.0739 C880.3729,250.0169 885.4149,251.7659 890.8709,251.8059 L891.2469,251.8059 L913.4559,251.8059 L913.4559,212.3459 L913.4559,208.6729 L913.4559,198.2949 L913.4559,189.4199 L913.4559,185.0569 L913.4559,164.4919 C913.4509,164.4939 913.4459,164.4949 913.4409,164.4969 L913.4409,180.9009 L913.4409,189.4039 Z" id="Fill-31" fill="#33CCFF"></path>
            <path d="M862.731,199.9473 C862.825,199.6423 862.92,199.3373 863.005,199.0323 C862.92,199.3373 862.825,199.6423 862.731,199.9473" id="Fill-33" fill="#33CCFF"></path>
            <path d="M861.0249,204.4449 C861.0579,204.3719 861.0899,204.2989 861.1229,204.2259 C861.0899,204.2989 861.0579,204.3719 861.0249,204.4449" id="Fill-35" fill="#33CCFF"></path>
            <path d="M159.1431,197.126 C159.1041,197.169 159.0681,197.213 159.0291,197.256 C158.2281,198.126 157.3911,198.944 156.5371,199.739 C154.7271,201.607 152.9721,203.529 151.2781,205.504 C149.4041,208.044 147.4411,210.513 145.3891,212.904 C129.4171,231.523 108.1991,245.505 84.0241,252.563 C95.0151,255.653 106.8851,257.228 119.6301,257.291 C119.8981,257.293 120.1621,257.3 120.4311,257.3 C121.7571,257.3 123.0621,257.26 124.3691,257.224 C137.9361,256.857 150.4701,254.609 161.9451,250.438 C174.5231,245.864 185.5031,239.233 194.8831,230.538 C204.2611,221.847 211.8091,211.323 217.5291,198.972 C222.6171,187.975 225.9761,175.794 227.6241,162.439 C206.6211,165.903 187.3401,174.467 171.0941,186.822 C166.9001,190.012 162.9101,193.454 159.1431,197.126" id="Fill-37" fill="#33CCFF"></path>
            <g id="Group-41" transform="translate(0.000000, 0.300000)">
                <mask id="mask-2" fill="white">
                    <use xlink:href="#path-1"></use>
                </mask>
                <g id="Clip-40"></g>
                <path d="M120.4307,212.0528 C108.3027,212.0528 98.0107,209.7108 89.5517,205.0198 C81.0847,200.3348 74.2227,194.0988 68.9647,186.3208 C63.6987,178.5468 59.8727,169.7978 57.4697,160.0728 C55.0687,150.3538 53.8677,140.3438 53.8677,130.0518 C53.8677,119.3018 55.0687,108.8958 57.4697,98.8278 C58.8107,93.2118 60.6127,87.9448 62.8437,83.0038 C63.2777,82.0418 63.7297,81.0918 64.1957,80.1538 C64.2227,80.1008 64.2497,80.0488 64.2767,79.9958 C64.7157,79.1218 65.1647,78.2558 65.6347,77.4038 C65.7777,77.1418 65.9307,76.8858 66.0767,76.6258 C66.4497,75.9688 66.8187,75.3088 67.2087,74.6648 C67.7757,73.7268 68.3587,72.8028 68.9647,71.8948 C74.2227,64.0038 81.0847,57.7138 89.5517,53.0238 C98.0107,48.3378 108.3027,45.9898 120.4307,45.9898 C120.9947,45.9898 121.5537,46.0088 122.1137,46.0248 L122.1137,46.0238 C128.1357,46.1938 133.9247,47.2638 139.4717,49.2498 C145.5307,51.4248 150.9657,54.4538 155.7707,58.3398 C160.5737,62.2338 164.5737,66.7478 167.7797,71.8948 C167.7797,71.8948 167.7797,71.8958 167.7807,71.8958 C167.8117,71.9468 167.8437,71.9978 167.8747,72.0488 C174.2267,82.3598 185.2397,88.8768 197.3497,88.8768 L226.1067,88.8768 C224.5037,74.6978 220.6177,62.1158 214.4417,51.1358 C211.3227,45.5918 207.7767,40.5038 203.8127,35.8638 C199.9257,31.3148 195.6357,27.1968 190.9377,23.5158 C181.4437,16.0858 170.6947,10.4248 158.6857,6.5318 C146.6777,2.6458 133.9237,0.6998 120.4307,0.6998 C101.6717,0.6998 84.8007,4.0188 69.8227,10.6498 C62.3707,13.9498 55.5237,17.8928 49.2357,22.4368 C49.2187,22.4368 49.2007,22.4358 49.1827,22.4348 C48.8307,22.6898 48.4927,22.9608 48.1437,23.2198 C47.7257,23.5288 47.3117,23.8428 46.8987,24.1578 C46.0297,24.8228 45.1737,25.5018 44.3277,26.1918 C43.9277,26.5178 43.5247,26.8428 43.1297,27.1748 C42.2697,27.8978 41.4277,28.6378 40.5927,29.3868 C40.2427,29.7008 39.8867,30.0068 39.5407,30.3258 C38.3857,31.3888 37.2507,32.4728 36.1437,33.5868 C36.0617,33.6698 35.9737,33.7458 35.8927,33.8278 C34.5287,35.2118 33.1997,36.6358 31.9087,38.0988 C30.8507,39.2978 29.8347,40.5318 28.8267,41.7738 C28.4827,42.2008 28.1327,42.6238 27.7927,43.0548 C27.7927,43.0548 27.7927,43.0558 27.7917,43.0558 C19.4927,53.5868 12.9657,65.5978 8.2337,79.0988 C2.7437,94.7698 -0.0003,111.7538 -0.0003,130.0518 C-0.0003,147.8928 2.7437,164.5338 8.2337,179.9728 C13.7237,195.4128 21.6167,208.8538 31.9087,220.2878 C37.1777,226.1438 43.0687,231.3438 49.5657,235.9078 C76.7707,235.5738 101.9357,226.7738 122.5447,212.0118 C121.8437,212.0308 121.1447,212.0528 120.4307,212.0528" id="Fill-39" fill="#33CCFF" mask="url(#mask-2)"></path>
            </g>
            <path d="M906.2451,94.1316 C901.4421,87.6206 895.2571,82.5366 887.7051,78.8636 C880.1671,75.2056 871.8111,72.7526 862.6671,71.4896 C858.0891,70.8656 853.5381,70.3886 849.0341,70.0766 C847.9041,70.0016 846.7741,69.9276 845.6441,69.8686 C842.2691,69.6896 838.9101,69.6006 835.5641,69.6006 C833.1561,69.6006 830.7321,69.6606 828.3231,69.7796 C820.9641,70.1506 813.6491,71.0586 806.3491,72.5146 C796.6261,74.4626 787.8831,77.7186 780.1071,82.2986 C772.3311,86.8766 765.9231,92.9436 760.8981,100.4806 C755.8581,108.0336 753.0041,117.5186 752.3201,128.9676 L782.7201,128.9676 C792.0501,128.9676 800.3491,123.5786 804.7531,115.3536 C806.2801,112.5026 808.2451,110.1766 810.6451,108.3756 C815.4481,104.7776 821.8261,102.7556 829.7811,102.3096 C830.8811,102.2356 831.9961,102.2046 833.1561,102.2046 C835.3261,102.2046 837.4381,102.2796 839.4591,102.4146 C841.5411,102.5476 843.5341,102.7706 845.4651,103.0526 C849.2431,103.6336 852.5571,104.7776 855.4271,106.4866 C858.2821,108.1966 860.5721,110.6056 862.2821,113.6976 C863.9911,116.7756 864.8531,120.9546 864.8531,126.2166 C865.0771,131.2566 863.5901,135.0786 860.3941,137.7096 C857.1961,140.3416 852.8401,142.3486 847.3541,143.7156 C841.8681,145.0826 835.5791,146.1106 828.4871,146.8086 C821.3951,147.4926 814.1841,148.4136 806.8691,149.5446 C799.5551,150.6896 792.2851,152.2356 785.0881,154.1836 C780.3891,155.4526 776.0381,157.1396 772.0211,159.2286 C769.8731,160.3466 767.8171,161.5736 765.8651,162.9256 C760.2591,166.8216 755.6951,172.0246 752.1421,178.5366 C749.7671,182.9266 748.1831,188.1296 747.4111,194.1206 C754.3951,186.9766 764.1331,182.5376 774.9131,182.5376 C783.5261,182.5376 791.4771,185.3696 797.8881,190.1516 C797.9101,190.1106 797.9271,190.0676 797.9481,190.0276 C799.5551,187.0706 801.6651,184.6026 804.2971,182.6536 C806.9291,180.7216 810.0061,179.1746 813.5591,178.0296 C817.0981,176.8866 820.7101,175.9646 824.3691,175.2796 C828.2491,174.5956 832.1451,174.0306 836.0401,173.5706 C836.0401,173.5706 846.0421,172.1286 858.8551,168.6566 C873.6961,164.6346 892.3001,157.8856 903.5101,147.5006 C908.3061,143.0576 911.7501,137.9516 912.9611,132.1046 C912.9731,132.0446 912.9891,131.9846 913.0001,131.9236 C913.0351,131.7496 913.0571,131.5726 913.0871,131.3976 C913.3151,130.0206 913.4411,128.6176 913.4411,127.1976 L913.4411,120.0466 C913.4411,109.2976 911.0471,100.6596 906.2451,94.1316" id="Fill-42" fill="#33CCFF"></path>
            <path d="M299.8584,182.6541 C302.4914,180.7211 305.5674,179.1751 309.1214,178.0301 C312.6604,176.8861 316.2724,175.9641 319.9304,175.2801 C323.8114,174.5961 327.7074,174.0301 331.6024,173.5711 C331.6024,173.5711 341.6044,172.1291 354.4174,168.6561 C354.4894,168.6371 354.5654,168.6151 354.6374,168.5951 C369.3334,164.5961 387.6374,157.9291 398.8164,147.7231 C405.2084,142.9361 409.0084,135.4321 409.0084,127.4271 L409.0084,120.0631 C409.0084,113.3441 408.0734,107.4501 406.1984,102.3801 C405.0734,99.3331 403.6104,96.5831 401.8064,94.1321 C397.0044,87.6201 390.8194,82.5361 383.2674,78.8631 C375.7294,75.2061 367.3734,72.7531 358.2294,71.4891 C353.6504,70.8651 349.1004,70.3891 344.5954,70.0761 C343.4664,70.0011 342.3354,69.9271 341.2064,69.8691 C337.8314,69.6891 334.4714,69.6001 331.1264,69.6001 C328.7184,69.6001 326.2944,69.6601 323.8844,69.7801 C316.5254,70.1501 309.2114,71.0581 301.9104,72.5141 C292.1874,74.4621 283.4444,77.7191 275.6694,82.2981 C267.8934,86.8771 261.4854,92.9441 256.4604,100.4811 C251.4204,108.0341 248.5664,117.5191 247.8814,128.9671 L247.8884,128.9671 C247.8884,128.9731 247.8874,128.9781 247.8874,128.9841 L278.5324,128.9841 C287.7124,128.9841 295.9534,123.7181 300.2074,115.5841 C301.7504,112.6351 303.7534,110.2381 306.2124,108.3921 C311.0154,104.7941 317.3934,102.7721 325.3484,102.3261 C326.4484,102.2511 327.5634,102.2211 328.7234,102.2211 C330.8934,102.2211 333.0054,102.2961 335.0264,102.4311 C337.1084,102.5631 339.1014,102.7871 341.0324,103.0691 C344.8104,103.6501 348.1244,104.7941 350.9944,106.5031 C353.8494,108.2131 356.1394,110.6221 357.8494,113.7141 C358.2754,114.4821 358.6494,115.3201 358.9704,116.2251 C359.9314,118.9431 360.4154,122.2761 360.4154,126.2161 C360.6384,131.2561 359.1514,135.0791 355.9564,137.7091 C352.7584,140.3421 348.4024,142.3491 342.9164,143.7161 C337.4294,145.0831 331.1414,146.1101 324.0494,146.8081 C316.9574,147.4921 309.7464,148.4131 302.4304,149.5441 C295.1164,150.6891 287.8474,152.2361 280.6494,154.1831 C275.9514,155.4521 271.5994,157.1391 267.5834,159.2291 C265.4354,160.3461 263.3794,161.5731 261.4264,162.9251 C255.8214,166.8211 251.2564,172.0241 247.7034,178.5371 C247.0174,179.8061 246.4044,181.1511 245.8514,182.5561 C245.8454,182.5691 245.8404,182.5831 245.8354,182.5971 C245.5764,183.2541 245.3344,183.9271 245.1044,184.6141 C245.0764,184.6971 245.0484,184.7811 245.0214,184.8651 C244.8154,185.4951 244.6224,186.1381 244.4404,186.7921 C244.4094,186.9021 244.3774,187.0121 244.3474,187.1241 C244.1684,187.7891 244.0014,188.4681 243.8474,189.1581 C243.8274,189.2461 243.8054,189.3311 243.7864,189.4201 C243.4574,190.9241 243.1914,192.4901 242.9824,194.1121 C242.8584,195.0671 242.7504,196.0381 242.6694,197.0331 C242.4894,199.0851 242.4004,201.2101 242.4004,203.4251 C242.4004,212.5841 243.9324,220.4801 247.0244,227.1111 C250.1174,233.7421 254.4004,239.2271 259.9004,243.5841 C265.3864,247.9241 271.7794,251.1211 279.1094,253.1881 C285.6814,255.0321 292.7284,256.0431 300.2214,256.2361 C301.0254,256.2511 301.8274,256.2661 302.6444,256.2661 C304.7114,256.2661 306.7634,256.2061 308.7994,256.1021 C309.4844,256.0581 310.1674,256.0131 310.8524,255.9681 C312.9814,255.8131 315.1004,255.5951 317.2114,255.3181 C323.2224,254.5291 329.1614,253.2461 335.0264,251.4631 C345.4934,248.2821 354.6074,242.7211 362.3694,234.7671 C362.3974,234.7381 362.4214,234.7141 362.4464,234.6901 C362.4604,234.6771 362.4724,234.6641 362.4884,234.6481 C362.4934,234.7181 362.5014,234.7861 362.5064,234.8551 C366.0494,244.6811 375.3964,251.7251 386.4234,251.8051 L386.7994,251.8051 L409.0084,251.8051 L409.0084,212.3461 L409.0084,208.6731 L409.0084,198.2951 L409.0084,189.4201 L409.0084,185.0571 L409.0084,164.4921 C394.9024,168.1201 381.7444,174.1011 369.9564,181.9721 C369.7094,182.1361 369.4624,182.3011 369.2164,182.4681 C363.4774,186.4831 359.4554,192.7801 358.4784,200.0461 C358.5434,199.5451 358.6144,199.0481 358.6984,198.5621 C357.8884,201.6431 356.6394,204.6971 354.9344,207.7231 C352.4064,212.1831 348.5264,216.0191 343.2634,219.2151 C339.9454,221.2481 335.7484,222.6161 330.6934,223.3561 C329.2024,223.5751 327.6454,223.7451 326.0024,223.8541 C324.3514,223.9591 322.6264,224.0191 320.8284,224.0191 L320.7244,224.0191 C319.8914,224.0191 319.0594,223.9881 318.2264,223.9591 C317.6914,223.9431 317.1704,223.9141 316.6354,223.8701 C316.5904,223.8831 316.5464,223.8701 316.5014,223.8541 C316.1214,223.8411 315.7414,223.8041 315.3714,223.7771 C315.0094,223.7491 314.6484,223.7241 314.2874,223.6781 C313.6644,223.6001 313.0384,223.5181 312.4134,223.4381 C311.9524,223.3771 311.4914,223.3191 311.0294,223.2301 C310.5684,223.1561 310.1084,223.0811 309.6474,222.9911 C305.9744,222.3071 302.7784,221.1041 300.0434,219.3951 C297.2934,217.6701 295.1224,215.3341 293.5154,212.3461 C291.9104,209.3881 291.1224,205.7161 291.1224,201.3751 C291.1224,196.7951 291.9104,193.0321 293.5154,190.0441 L293.5104,190.0281 C295.1164,187.0701 297.2274,184.6021 299.8584,182.6541" id="Fill-44" fill="#33CCFF"></path>
            <path d="M874.4033,181.9717 C874.1563,182.1367 873.9093,182.3017 873.6643,182.4677 C868.4663,186.1037 864.6853,191.6157 863.2913,198.0207 L863.1453,198.5627 C863.1043,198.7197 863.0493,198.8757 863.0053,199.0327 C862.9203,199.3377 862.8253,199.6427 862.7313,199.9477 C862.2923,201.3797 861.7563,202.8057 861.1233,204.2267 C861.0903,204.2987 861.0583,204.3717 861.0253,204.4447 C860.5283,205.5407 859.9953,206.6347 859.3823,207.7227 C856.8543,212.1837 852.9743,216.0197 847.7113,219.2157 C844.3933,221.2477 840.1963,222.6157 835.1413,223.3567 C833.6503,223.5747 832.0923,223.7457 830.4503,223.8537 C828.7993,223.9587 827.0733,224.0187 825.2763,224.0187 L825.1723,224.0187 C824.3393,224.0187 823.5073,223.9887 822.6733,223.9587 C822.1383,223.9427 821.6183,223.9137 821.0833,223.8697 C821.0373,223.8837 820.9933,223.8697 820.9483,223.8537 C820.5693,223.8407 820.1893,223.8047 819.8193,223.7767 C819.4563,223.7497 819.0953,223.7237 818.7353,223.6787 C818.1113,223.5997 817.4863,223.5177 816.8613,223.4387 C816.4003,223.3777 815.9383,223.3187 815.4773,223.2297 C815.0163,223.1567 814.5563,223.0807 814.0953,222.9917 C813.8333,222.9427 813.5913,222.8717 813.3353,222.8177 C812.6823,236.8947 804.4623,248.9877 792.6503,255.1387 C796.5133,255.7477 800.5133,256.1137 804.6533,256.2197 C805.4573,256.2347 806.2593,256.2497 807.0773,256.2497 C809.1443,256.2497 811.1953,256.1897 813.2323,256.0857 C813.9173,256.0417 814.6003,255.9967 815.2843,255.9517 C817.4133,255.7967 819.5323,255.5787 821.6433,255.3017 C827.6543,254.5127 833.5933,253.2297 839.4593,251.4467 C849.9263,248.2657 859.0403,242.7047 866.8013,234.7507 C866.8273,234.7237 866.8503,234.7017 866.8733,234.6797 C866.8883,234.6647 866.9033,234.6497 866.9213,234.6317 C866.9213,234.6417 866.9223,234.6507 866.9233,234.6607 C866.9273,234.6567 866.9313,234.6527 866.9353,234.6487 C866.9413,234.7177 866.9483,234.7857 866.9543,234.8557 C868.4493,239.0037 870.9883,242.6457 874.2423,245.4877 C874.3653,245.5947 874.4803,245.7097 874.6043,245.8147 C874.7903,245.9707 874.9873,246.1107 875.1773,246.2617 C875.4973,246.5147 875.8123,246.7727 876.1443,247.0107 C876.1743,247.0327 876.2083,247.0517 876.2383,247.0737 C880.4033,250.0317 885.4863,251.7787 890.9853,251.7887 L891.0833,251.7887 L913.4413,251.7887 L913.4413,212.3297 L913.4413,189.4037 L913.4413,180.9007 L913.4413,164.4967 C899.3403,168.1247 886.1883,174.1037 874.4033,181.9717" id="Fill-46" fill="#33CCFF"></path>
            <g id="Group-55" transform="translate(943.000000, 1.300000)">
                <path d="M61.1553,130.8226 C73.0093,130.8226 83.4373,128.5206 92.4343,123.9176 C101.4303,119.3146 108.3683,112.8646 113.2533,104.5646 C118.1343,96.2676 120.5753,86.6756 120.5753,75.7956 C120.5753,64.9166 118.1343,55.3276 113.2533,47.0276 C108.3683,38.7306 101.4303,32.2766 92.4343,27.6736 C83.4373,23.0706 73.0093,20.7696 61.1553,20.7696 L21.6113,20.7696 L21.6113,130.8226 L61.1553,130.8226 Z M0.6883,2.5666 L62.4103,2.5666 C77.8933,2.5666 91.6313,5.6366 103.6283,11.7726 C115.6233,17.9126 124.9333,26.5226 131.5593,37.6126 C138.1823,48.7016 141.4983,61.4316 141.4983,75.7956 C141.4983,90.1636 138.1823,102.8906 131.5593,113.9796 C124.9333,125.0686 115.6233,133.6826 103.6283,139.8196 C91.6313,145.9586 77.8933,149.0246 62.4103,149.0246 L0.6883,149.0246 L0.6883,2.5666 Z" id="Fill-48" fill="#A6E9FF"></path>
                <path d="M257.4082,95.6722 L225.8142,23.9082 L194.2212,95.6722 L257.4082,95.6722 Z M264.7312,112.4102 L186.8982,112.4102 L170.7882,149.0252 L149.2382,149.0252 L215.5622,2.5672 L236.2762,2.5672 L302.8092,149.0252 L280.8422,149.0252 L264.7312,112.4102 Z" id="Fill-50" fill="#A6E9FF"></path>
                <g id="Group-54" transform="translate(310.000000, 0.000000)">
                    <mask id="mask-4" fill="white">
                        <use xlink:href="#path-3"></use>
                    </mask>
                    <g id="Clip-53"></g>
                    <path d="M107.5713,124.7547 C116.1493,119.8737 122.9133,113.1427 127.8663,104.5647 C132.8153,95.9857 135.2943,86.3977 135.2943,75.7957 C135.2943,65.1977 132.8153,55.6057 127.8663,47.0277 C122.9133,38.4487 116.1493,31.7207 107.5713,26.8367 C98.9923,21.9557 89.3323,19.5137 78.5933,19.5137 C67.8503,19.5137 58.1213,21.9557 49.4063,26.8367 C40.6873,31.7207 33.8513,38.4487 28.9023,47.0277 C23.9493,55.6057 21.4743,65.1977 21.4743,75.7957 C21.4743,86.3977 23.9493,95.9857 28.9023,104.5647 C33.8513,113.1427 40.6873,119.8737 49.4063,124.7547 C58.1213,129.6387 67.8503,132.0777 78.5933,132.0777 C89.3323,132.0777 98.9923,129.6387 107.5713,124.7547 M38.6313,140.9697 C26.7733,134.4837 17.4633,125.5227 10.6993,114.0847 C3.9313,102.6487 0.5513,89.8857 0.5513,75.7957 C0.5513,61.7087 3.9313,48.9467 10.6993,37.5077 C17.4633,26.0717 26.7733,17.1077 38.6313,10.6217 C50.4853,4.1357 63.8063,0.8927 78.5933,0.8927 C93.2393,0.8927 106.4893,4.1357 118.3453,10.6217 C130.2003,17.1077 139.4783,26.0357 146.1743,37.4027 C152.8693,48.7727 156.2173,61.5687 156.2173,75.7957 C156.2173,90.0237 152.8693,102.8217 146.1743,114.1887 C139.4783,125.5587 130.2003,134.4837 118.3453,140.9697 C106.4893,147.4557 93.2393,150.6987 78.5933,150.6987 C63.8063,150.6987 50.4853,147.4557 38.6313,140.9697" id="Fill-52" fill="#A6E9FF" mask="url(#mask-4)"></path>
                </g>
            </g>
        </g>
    </g>
</svg>